<svg version="1.1" id="Layer_1" xmlns="http://www.w3.org/2000/svg" xmlns:xlink="http://www.w3.org/1999/xlink" x="0px" y="0px"
	 width="100%" viewBox="0 0 225 116" enable-background="new 0 0 225 116" xml:space="preserve">
<path fill="#000000" opacity="1.000000" stroke="none" 
	d="
M165.000000,117.000000 
	C110.000008,117.000000 55.500011,117.000000 1.000015,117.000000 
	C1.000010,78.333344 1.000010,39.666691 1.000005,1.000025 
	C75.999977,1.000017 150.999954,1.000017 225.999954,1.000008 
	C225.999969,39.666641 225.999969,78.333282 225.999985,116.999962 
	C205.833328,117.000000 185.666672,117.000000 165.000000,117.000000 
M82.348831,107.929222 
	C81.925659,107.923500 81.502495,107.917778 81.004463,107.410316 
	C80.706047,106.942505 80.407639,106.474693 80.109230,106.006882 
	C79.921410,106.161484 79.733597,106.316086 79.545776,106.470688 
	C80.011642,107.003357 80.477509,107.536018 81.148338,108.486023 
	C81.793015,108.328239 82.437691,108.170456 83.157928,107.946091 
	C83.157928,107.946091 82.984245,107.916504 82.348831,107.929222 
M108.894775,77.503998 
	C108.692322,77.154610 108.406616,77.061928 107.297752,77.076401 
	C106.545784,77.016724 105.793808,76.957047 104.659599,76.269112 
	C103.449013,76.235992 102.238434,76.202873 100.331169,76.032928 
	C99.218323,75.754387 98.105484,75.475838 96.071068,75.053116 
	C91.043495,75.104889 86.015915,75.156654 80.090645,75.100815 
	C68.218735,75.148727 57.142769,78.668510 45.821144,82.887756 
	C47.178341,84.756187 48.969948,86.973999 50.238403,86.706947 
	C60.345722,84.578995 70.353836,81.979828 80.440247,79.497200 
	C80.440247,79.497200 80.411392,79.544304 81.365540,79.891357 
	C88.559074,80.296844 95.752609,80.702339 103.409157,81.788086 
	C105.854027,81.969002 108.454147,81.680656 110.711754,82.427589 
	C115.551918,84.028969 120.215240,86.164879 125.114090,88.568855 
	C125.415489,88.644135 125.716881,88.719414 126.458649,88.920845 
	C126.458649,88.920845 126.913940,88.971298 126.914566,89.073311 
	C126.914566,89.073311 127.016579,89.073799 127.354156,89.742912 
	C129.565399,90.174454 131.776657,90.605995 134.399414,91.730034 
	C145.795929,94.346489 157.285629,95.907898 169.833435,94.942070 
	C171.898026,94.656784 173.962631,94.371506 176.768021,93.973068 
	C177.513321,93.906273 178.258636,93.839470 179.494263,93.911957 
	C179.660645,93.877449 179.827026,93.842949 180.600052,93.934517 
	C181.075851,93.636490 181.551666,93.338470 182.853546,92.988098 
	C186.251572,92.009926 189.649597,91.031754 193.005676,90.016731 
	C193.005676,90.016731 193.044037,90.056465 193.737274,89.978531 
	C194.530701,89.668640 195.324142,89.358749 196.823090,88.980644 
	C197.984848,88.032967 199.146622,87.085297 200.308380,86.137619 
	C200.128662,85.575195 199.948944,85.012764 199.769226,84.450340 
	C197.519272,84.680405 195.269318,84.910461 192.402969,85.023994 
	C191.930450,85.331367 191.457947,85.638741 190.337326,86.068237 
	C189.902527,86.128777 189.467712,86.189316 188.424286,86.071701 
	C187.716049,86.449013 187.007812,86.826317 186.038513,87.097626 
	C186.038513,87.097626 185.780426,87.210693 185.398758,87.697922 
	C185.559204,87.827614 185.719635,87.957314 185.800278,88.046753 
	C185.800278,88.046753 185.721817,88.003960 185.672058,87.265610 
	C183.419662,87.832428 181.167252,88.399246 178.269119,89.045074 
	C177.840744,89.106316 177.412369,89.167557 176.166595,89.057350 
	C174.101425,89.337166 172.036270,89.616982 169.045578,90.024757 
	C162.711868,89.990730 156.378159,89.956711 149.664139,89.288849 
	C148.449112,89.257263 147.234085,89.225685 145.569809,89.053421 
	C145.569809,89.053421 145.108765,88.958359 144.715363,88.276543 
	C143.154373,88.240227 141.593384,88.203911 139.569824,88.024940 
	C139.569824,88.024940 139.089981,87.961182 138.739853,87.365875 
	C137.840057,87.303871 136.940247,87.241867 135.576050,87.027328 
	C135.576050,87.027328 135.090988,86.966942 134.888916,86.526657 
	C134.687317,86.183685 134.406784,86.097389 133.527832,86.089752 
	C133.352676,86.036659 133.177505,85.983559 132.892456,85.469727 
	C132.697205,85.126160 132.424316,85.045807 131.382446,85.111977 
	C130.917511,85.138069 130.452576,85.164169 129.519333,85.011169 
	C129.355652,84.977386 129.191956,84.943604 129.018204,84.974731 
	C129.018204,84.974731 129.074173,84.940323 128.687378,84.329224 
	C123.490509,82.540558 118.293648,80.751892 112.676064,78.353386 
	C111.453789,78.213501 110.231522,78.073616 109.000473,77.992546 
	C109.000473,77.992546 109.055992,77.971268 108.894775,77.503998 
M126.363235,104.069923 
	C125.103195,104.491814 123.843147,104.913704 122.583107,105.335594 
	C122.531067,105.958618 122.479034,106.581642 122.426994,107.204666 
	C123.972313,107.453583 125.517639,107.702499 127.676285,107.952309 
	C128.432800,107.565109 129.189316,107.177910 129.945847,106.790710 
	C128.983643,105.884178 128.021439,104.977646 126.363235,104.069923 
M178.739609,106.372849 
	C177.159332,105.248360 175.579041,104.123871 173.249084,102.999504 
	C172.499390,102.999672 171.749695,102.999832 170.308350,103.070908 
	C169.200760,104.046280 168.093170,105.021652 166.318436,105.895271 
	C165.367752,105.296616 164.473022,104.349541 163.452530,104.185722 
	C162.116074,103.971176 160.318649,103.916229 159.392319,104.646309 
	C158.522095,105.332161 158.526886,107.128265 158.151535,108.419136 
	C161.285492,107.860497 163.639740,107.440849 166.285828,107.654747 
	C168.796082,110.254951 171.189056,111.639374 173.497253,107.003860 
	C173.497253,107.003860 173.992828,107.001999 174.460556,107.352516 
	C174.995560,107.580231 175.530579,107.807945 176.520416,108.324112 
	C177.301910,107.887398 178.083405,107.450676 178.739609,106.372849 
M138.711075,108.064407 
	C140.764816,107.710327 142.818542,107.356247 145.069229,107.607178 
	C145.702347,108.425140 146.335464,109.243103 147.511581,110.339706 
	C149.378616,109.212624 151.245636,108.085541 153.658066,106.661659 
	C153.788025,105.714104 153.917999,104.766548 154.047958,103.818985 
	C152.287766,104.007202 150.527588,104.195412 147.829483,104.251831 
	C146.886322,104.167885 145.943161,104.083939 144.356308,103.991905 
	C143.927216,103.985085 143.498108,103.978271 142.979355,103.409447 
	C142.615906,102.948524 142.252457,102.487602 141.889008,102.026688 
	C141.267609,103.035416 140.646210,104.044144 139.565826,105.379265 
	C139.045303,105.586578 138.524796,105.793900 137.968124,105.504494 
	C137.800476,104.999138 137.632812,104.493790 137.465149,103.988434 
	C137.275070,104.035477 137.084991,104.082512 136.894897,104.129555 
	C136.928513,104.753441 136.962128,105.377335 136.455170,106.151817 
	C135.969925,106.425896 135.484665,106.699974 134.541306,107.182861 
	C134.658081,107.889862 134.774857,108.596870 134.891647,109.303871 
	C135.947174,108.881310 137.002716,108.458755 138.711075,108.064407 
M63.871639,104.626022 
	C63.558872,104.478455 63.246105,104.330894 62.933338,104.183327 
	C63.288700,104.455704 63.644066,104.728073 64.123657,105.741318 
	C66.753960,111.069733 71.476768,108.693657 75.424217,108.539268 
	C76.377251,108.501991 77.247780,106.355034 77.947983,105.448013 
	C75.611557,104.507133 73.884277,104.271919 72.855087,103.298576 
	C70.883041,101.433502 69.408401,101.252045 67.458763,103.271690 
	C66.614922,104.145821 65.171509,104.441147 63.871639,104.626022 
M92.032478,21.411882 
	C91.684052,21.009472 91.335632,20.607061 90.130920,20.059704 
	C88.109039,20.099802 86.087151,20.139898 83.225739,20.431440 
	C83.145630,30.977032 83.047607,41.522602 83.033730,52.068279 
	C83.032967,52.648598 83.731804,53.229836 84.919060,53.919418 
	C86.286034,53.899948 87.653008,53.880478 89.861519,53.964104 
	C90.561119,52.626213 91.754440,51.331661 91.876328,49.943058 
	C92.457657,43.320492 92.747955,36.672379 93.660530,29.795942 
	C94.149414,29.221224 94.638298,28.646503 95.592194,27.882544 
	C95.760384,27.601915 95.928581,27.321287 96.546654,26.952385 
	C96.546654,26.952385 96.986481,26.823023 97.781357,26.965616 
	C102.252724,26.714478 102.942299,29.795038 102.993591,33.145576 
	C103.097435,39.928593 103.024582,46.714310 103.024582,53.809650 
	C105.985641,53.809650 108.436852,53.809650 111.740547,53.577965 
	C111.828102,48.506172 112.054794,43.431644 111.954979,38.363541 
	C111.886841,34.903973 111.362816,31.453382 110.962433,27.267006 
	C107.770103,18.804716 99.850044,15.998418 92.090370,21.963753 
	C92.090370,21.963753 92.149323,21.999889 92.032478,21.411882 
M153.739014,53.821102 
	C154.151855,52.541409 154.871292,51.273487 154.920944,49.979851 
	C155.079926,45.838524 154.915115,41.685863 155.014130,37.540897 
	C155.187210,30.294815 160.054825,26.910589 166.964539,29.943092 
	C166.841904,30.585743 166.790985,31.252302 166.585876,31.867451 
	C163.531448,41.028526 170.554459,55.650372 183.340805,53.893044 
	C186.753799,53.423969 190.012192,51.830170 193.244217,50.784241 
	C195.146500,54.952396 198.619217,52.429199 201.984924,52.595020 
	C201.984924,46.859779 201.984924,41.550991 201.984924,36.242207 
	C201.984924,30.960548 201.984924,25.678890 201.984924,19.291473 
	C198.114441,20.225754 195.104523,20.952305 190.744034,22.004862 
	C187.744537,19.711058 183.036194,18.050579 177.156845,19.831835 
	C171.995514,21.395555 169.899261,25.613499 166.497406,28.428175 
	C167.273697,25.812132 168.050003,23.196089 168.943787,20.184111 
	C161.993546,20.184111 155.455002,20.184111 148.061981,20.084314 
	C147.379364,20.729233 146.109467,21.367250 146.101776,22.020096 
	C145.977768,32.573528 146.014099,43.128845 146.014099,53.777489 
	C148.645523,53.777489 150.767303,53.777489 153.739014,53.821102 
M119.268059,19.045326 
	C118.507240,19.084230 117.746422,19.123137 116.359505,19.042631 
	C115.937424,19.076038 115.515350,19.109444 114.283180,19.462654 
	C114.188148,22.890173 113.925919,26.323252 114.039658,29.743828 
	C114.187729,34.196968 114.634247,38.640182 115.027046,43.822044 
	C116.857750,50.325600 121.327431,53.755142 128.285202,53.994900 
	C136.271301,54.270092 142.646301,51.119701 143.767395,44.582233 
	C145.129440,36.639500 144.867340,28.418247 145.306885,20.335768 
	C141.723541,20.335768 139.135864,20.335768 135.999588,20.335768 
	C135.999588,26.441305 136.069016,32.227180 135.974213,38.010365 
	C135.914917,41.627865 132.239014,45.960155 129.188156,45.936829 
	C124.368111,45.899975 123.232773,42.319466 123.050522,38.539150 
	C122.810562,33.561951 123.051888,28.561026 123.104408,23.570492 
	C123.127769,21.351427 123.995377,18.574593 119.268059,19.045326 
M79.138077,20.070841 
	C72.900215,20.134661 66.628998,21.688129 60.445625,19.159918 
	C59.153343,18.631540 57.233437,19.346037 55.686081,19.782907 
	C47.922527,21.974821 44.820164,28.210451 44.217674,35.254780 
	C43.640408,42.004261 46.272820,48.212547 52.527008,51.874649 
	C58.630997,55.448799 64.724213,54.953781 70.328888,50.648914 
	C72.867188,54.879807 76.782295,52.303295 80.772118,52.421242 
	C80.849396,42.346859 80.945503,32.272511 80.960991,22.198030 
	C80.962006,21.536219 80.346725,20.873459 79.138077,20.070841 
M28.082888,42.308819 
	C25.830700,37.011215 22.500998,31.075487 26.856581,26.150982 
	C30.440817,22.098574 36.092793,19.875021 41.068596,16.687012 
	C40.421627,15.162407 39.399231,13.575428 39.088806,11.859637 
	C38.312916,7.571098 36.056442,7.313108 32.727589,9.043238 
	C31.865402,9.491349 30.885443,9.707449 29.974977,10.068903 
	C17.289677,15.104959 9.716150,27.336395 15.813061,40.659901 
	C20.381269,50.642757 24.544348,60.810333 28.954763,70.866302 
	C32.033077,77.885002 29.098824,85.267677 22.038656,87.908554 
	C19.461605,88.872505 16.847212,89.736610 13.819702,90.796913 
	C15.060341,94.276962 16.249304,97.612053 17.592264,101.379112 
	C22.215364,99.532059 26.954504,98.368340 30.885603,95.911636 
	C38.378780,91.228828 44.794956,81.280525 40.458214,70.995270 
	C36.512787,61.638084 32.469261,52.322266 28.082888,42.308819 
M79.663872,67.991798 
	C90.409157,67.796013 101.187851,67.618767 111.534081,71.095955 
	C118.676926,73.496552 125.534164,76.794029 132.741318,78.946426 
	C147.448837,83.338806 162.554626,84.481087 177.695770,81.877663 
	C185.610794,80.516724 193.318848,77.952148 200.920837,75.982872 
	C200.775482,71.370941 198.586639,70.020035 195.630569,71.191208 
	C181.797623,76.671722 167.630646,78.342598 152.770767,77.157898 
	C142.422073,76.332863 132.966522,73.295410 123.354355,69.866997 
	C115.117180,66.929008 106.533173,64.103966 97.912682,63.321854 
	C87.583809,62.384747 76.985664,63.057610 66.633888,64.204468 
	C59.639290,64.979393 52.868793,67.777153 45.391254,69.837296 
	C46.787571,72.365005 47.542778,73.732140 47.783455,74.167831 
	C58.584881,72.007355 68.647400,69.994675 79.663872,67.991798 
M102.877930,103.648140 
	C101.652710,104.355171 100.427490,105.062210 99.202263,105.769234 
	C99.966522,106.741188 100.644966,108.457489 101.509789,108.557190 
	C105.406578,109.006447 109.364517,109.193260 113.281425,109.027023 
	C114.371078,108.980782 115.395615,107.399940 116.450020,106.523125 
	C115.322235,105.434227 114.289856,103.562263 113.047836,103.410934 
	C109.967712,103.035652 106.791801,103.446396 102.877930,103.648140 
M189.699631,106.059448 
	C191.796280,107.014366 193.830780,108.517685 196.007690,108.764374 
	C198.037491,108.994400 200.910614,108.518097 202.126572,107.182205 
	C203.208405,105.993698 202.528107,103.201241 202.593170,101.809349 
	C198.668198,102.044464 195.811615,102.118477 192.979172,102.419441 
	C191.095978,102.619545 188.291656,102.033478 189.699631,106.059448 
M91.790993,105.683746 
	C92.480927,106.421387 93.170860,107.159019 93.860794,107.896652 
	C94.167412,106.296753 94.474030,104.696861 94.780647,103.096962 
	C94.305817,102.986412 93.830986,102.875862 93.356163,102.765312 
	C92.874931,103.532196 92.393707,104.299080 91.790993,105.683746 
M50.927853,108.210663 
	C50.615353,108.491783 50.302853,108.772896 49.990349,109.054016 
	C50.274368,109.149529 50.735363,109.398079 50.809620,109.312195 
	C51.043541,109.041695 51.132317,108.645668 50.927853,108.210663 
M184.824722,102.423309 
	C184.733383,102.113937 184.646698,101.802826 184.534088,101.501411 
	C184.529480,101.489052 184.281540,101.567604 184.146957,101.603790 
	C184.263336,101.905861 184.379700,102.207932 184.824722,102.423309 
M181.392838,108.704605 
	C181.423630,108.443916 181.466522,108.183250 181.466782,107.922531 
	C181.466812,107.895905 181.211090,107.869019 181.074051,107.842255 
	C181.096802,108.108345 181.119553,108.374428 181.392838,108.704605 
M97.628395,108.664101 
	C97.574310,108.684227 97.520226,108.704353 97.628395,108.664101 
M122.034836,110.921898 
	C121.897369,110.904945 121.759903,110.888000 121.622437,110.871056 
	C121.718834,110.928154 121.815231,110.985252 122.034836,110.921898 
M82.062386,103.505325 
	C82.062386,103.505325 82.015656,103.557648 82.062386,103.505325 
M156.060547,108.505020 
	C156.060547,108.505020 156.014847,108.556046 156.060547,108.505020 
z"/>
<path fill="#489E4A" opacity="1.000000" stroke="none" 
	d="
M28.275932,42.648514 
	C32.469261,52.322266 36.512787,61.638084 40.458214,70.995270 
	C44.794956,81.280525 38.378780,91.228828 30.885603,95.911636 
	C26.954504,98.368340 22.215364,99.532059 17.592264,101.379112 
	C16.249304,97.612053 15.060341,94.276962 13.819702,90.796913 
	C16.847212,89.736610 19.461605,88.872505 22.038656,87.908554 
	C29.098824,85.267677 32.033077,77.885002 28.954763,70.866302 
	C24.544348,60.810333 20.381269,50.642757 15.813061,40.659901 
	C9.716150,27.336395 17.289677,15.104959 29.974977,10.068903 
	C30.885443,9.707449 31.865402,9.491349 32.727589,9.043238 
	C36.056442,7.313108 38.312916,7.571098 39.088806,11.859637 
	C39.399231,13.575428 40.421627,15.162407 41.068596,16.687012 
	C36.092793,19.875021 30.440817,22.098574 26.856581,26.150982 
	C22.500998,31.075487 25.830700,37.011215 28.275932,42.648514 
z"/>
<path fill="#489C4B" opacity="1.000000" stroke="none" 
	d="
M79.186897,67.986893 
	C68.647400,69.994675 58.584881,72.007355 47.783455,74.167831 
	C47.542778,73.732140 46.787571,72.365005 45.391254,69.837296 
	C52.868793,67.777153 59.639290,64.979393 66.633888,64.204468 
	C76.985664,63.057610 87.583809,62.384747 97.912682,63.321854 
	C106.533173,64.103966 115.117180,66.929008 123.354355,69.866997 
	C132.966522,73.295410 142.422073,76.332863 152.770767,77.157898 
	C167.630646,78.342598 181.797623,76.671722 195.630569,71.191208 
	C198.586639,70.020035 200.775482,71.370941 200.920837,75.982872 
	C193.318848,77.952148 185.610794,80.516724 177.695770,81.877663 
	C162.554626,84.481087 147.448837,83.338806 132.741318,78.946426 
	C125.534164,76.794029 118.676926,73.496552 111.534081,71.095955 
	C101.187851,67.618767 90.409157,67.796013 79.186897,67.986893 
z"/>
<path fill="#479D49" opacity="1.000000" stroke="none" 
	d="
M80.018684,52.806343 
	C76.782295,52.303295 72.867188,54.879807 70.328888,50.648914 
	C64.724213,54.953781 58.630997,55.448799 52.527008,51.874649 
	C46.272820,48.212547 43.640408,42.004261 44.217674,35.254780 
	C44.820164,28.210451 47.922527,21.974821 55.686081,19.782907 
	C57.233437,19.346037 59.153343,18.631540 60.445625,19.159918 
	C66.628998,21.688129 72.900215,20.134661 79.586922,20.595486 
	C80.030075,31.682199 80.024376,42.244270 80.018684,52.806343 
M61.751152,27.991676 
	C56.920742,27.956697 54.986717,31.681551 54.362762,35.218594 
	C53.894489,37.873112 54.920456,41.620590 56.687878,43.665894 
	C60.265656,47.806168 64.781509,46.155468 68.721840,43.565941 
	C72.301125,41.213684 72.710236,37.441502 71.737709,33.800327 
	C70.550346,29.354836 67.096893,27.623341 61.751152,27.991676 
z"/>
<path fill="#489D49" opacity="1.000000" stroke="none" 
	d="
M166.934952,29.198877 
	C169.899261,25.613499 171.995514,21.395555 177.156845,19.831835 
	C183.036194,18.050579 187.744537,19.711058 190.744034,22.004862 
	C195.104523,20.952305 198.114441,20.225754 201.984924,19.291473 
	C201.984924,25.678890 201.984924,30.960548 201.984924,36.242207 
	C201.984924,41.550991 201.984924,46.859779 201.984924,52.595020 
	C198.619217,52.429199 195.146500,54.952396 193.244217,50.784241 
	C190.012192,51.830170 186.753799,53.423969 183.340805,53.893044 
	C170.554459,55.650372 163.531448,41.028526 166.585876,31.867451 
	C166.790985,31.252302 166.841904,30.585743 166.961029,29.542595 
	C166.957520,29.142099 166.934952,29.198877 166.934952,29.198877 
M192.099411,30.601263 
	C190.365540,29.714701 188.720001,28.442446 186.879623,28.020992 
	C182.916077,27.113338 178.595383,27.928881 177.341217,31.850632 
	C176.263535,35.220551 176.280960,40.004261 177.967651,42.914783 
	C179.904388,46.256721 184.197495,47.173122 188.466110,44.847717 
	C194.069229,41.795315 195.439056,37.900677 192.099411,30.601263 
z"/>
<path fill="#479D49" opacity="1.000000" stroke="none" 
	d="
M115.093277,19.142851 
	C115.515350,19.109444 115.937424,19.076038 116.908318,19.245941 
	C118.312477,19.353159 119.167824,19.257065 120.023170,19.160971 
	C123.995377,18.574593 123.127769,21.351427 123.104408,23.570492 
	C123.051888,28.561026 122.810562,33.561951 123.050522,38.539150 
	C123.232773,42.319466 124.368111,45.899975 129.188156,45.936829 
	C132.239014,45.960155 135.914917,41.627865 135.974213,38.010365 
	C136.069016,32.227180 135.999588,26.441305 135.999588,20.335768 
	C139.135864,20.335768 141.723541,20.335768 145.306885,20.335768 
	C144.867340,28.418247 145.129440,36.639500 143.767395,44.582233 
	C142.646301,51.119701 136.271301,54.270092 128.285202,53.994900 
	C121.327431,53.755142 116.857750,50.325600 115.002090,42.981144 
	C115.015854,34.474445 115.054565,26.808649 115.093277,19.142851 
z"/>
<path fill="#469E48" opacity="1.000000" stroke="none" 
	d="
M148.916443,20.184109 
	C155.455002,20.184111 161.993546,20.184111 168.943787,20.184111 
	C168.050003,23.196089 167.273697,25.812132 166.716187,28.813526 
	C166.934952,29.198877 166.957520,29.142099 166.981125,29.128502 
	C160.054825,26.910589 155.187210,30.294815 155.014130,37.540897 
	C154.915115,41.685863 155.079926,45.838524 154.920944,49.979851 
	C154.871292,51.273487 154.151855,52.541409 152.980270,53.639671 
	C148.016525,53.292316 146.734085,51.085899 146.915176,46.987179 
	C147.222458,40.032951 146.865463,33.050953 147.093491,26.090643 
	C147.158569,24.104023 148.279617,22.151997 148.916443,20.184109 
z"/>
<path fill="#489D4B" opacity="1.000000" stroke="none" 
	d="
M110.888069,53.809650 
	C108.436852,53.809650 105.985641,53.809650 103.024582,53.809650 
	C103.024582,46.714310 103.097435,39.928593 102.993591,33.145576 
	C102.942299,29.795038 102.252724,26.714478 97.298798,26.602787 
	C95.655655,25.422064 94.436684,24.672892 93.359047,23.757360 
	C92.817955,23.297663 92.533958,22.535330 92.133698,21.909861 
	C99.850044,15.998418 107.770103,18.804716 110.985748,28.101109 
	C110.968735,37.226692 110.928398,45.518169 110.888069,53.809650 
z"/>
<path fill="#459E46" opacity="1.000000" stroke="none" 
	d="
M92.112030,21.936806 
	C92.533958,22.535330 92.817955,23.297663 93.359047,23.757360 
	C94.436684,24.672892 95.655655,25.422064 96.901360,26.531490 
	C96.986481,26.823023 96.546654,26.952385 96.150238,27.026718 
	C95.544937,27.424629 95.336060,27.748207 95.127182,28.071785 
	C94.638298,28.646503 94.149414,29.221224 93.065353,30.038839 
	C91.804466,32.144493 90.759888,33.964386 90.543388,35.877964 
	C89.867363,41.853283 89.504341,47.864010 89.019981,53.861012 
	C87.653008,53.880478 86.286034,53.899948 84.494049,53.411209 
	C84.067787,41.995331 84.066528,31.087664 84.065269,20.179996 
	C86.087151,20.139898 88.109039,20.099802 90.656204,20.384239 
	C91.504097,21.139143 91.826714,21.569515 92.149323,21.999889 
	C92.149323,21.999889 92.090370,21.963753 92.112030,21.936806 
M90.584549,27.656389 
	C90.383820,27.496538 90.183098,27.336687 89.982368,27.176834 
	C89.888962,27.438114 89.795547,27.699394 89.702141,27.960670 
	C89.961571,27.957336 90.221001,27.954002 90.584549,27.656389 
z"/>
<path fill="#0596CE" opacity="1.000000" stroke="none" 
	d="
M150.044449,89.922684 
	C156.378159,89.956711 162.711868,89.990730 169.785202,90.138016 
	C172.677887,89.910446 174.830933,89.569618 176.983994,89.228798 
	C177.412369,89.167557 177.840744,89.106316 178.893417,89.167465 
	C180.354309,90.540054 181.190903,91.790253 182.027481,93.040451 
	C181.551666,93.338470 181.075851,93.636490 180.183151,93.797371 
	C179.493805,93.564919 179.239700,93.602402 179.003937,93.772675 
	C178.258636,93.839470 177.513321,93.906273 176.114075,93.842148 
	C173.310822,94.069885 171.161530,94.428551 169.012222,94.787216 
	C157.285629,95.907898 145.795929,94.346489 134.013214,91.064102 
	C131.423523,89.956711 129.220047,89.515251 127.016579,89.073799 
	C127.016579,89.073799 126.914566,89.073311 126.824203,88.937111 
	C126.499443,88.674370 126.260918,88.672302 126.018280,88.794693 
	C125.716881,88.719414 125.415489,88.644135 125.255600,88.083084 
	C126.622795,86.711655 127.848488,85.825989 129.074173,84.940323 
	C129.074173,84.940323 129.018204,84.974731 129.119034,85.039764 
	C129.219864,85.104797 129.590790,85.246437 129.590790,85.246437 
	C129.590790,85.246437 129.987640,85.190262 129.987640,85.190262 
	C130.452576,85.164169 130.917511,85.138069 131.866547,85.307953 
	C132.548584,85.675575 132.765808,85.817757 133.002335,85.930458 
	C133.177505,85.983559 133.352676,86.036659 133.949402,86.312515 
	C134.596359,86.703552 134.836365,86.847443 135.090988,86.966942 
	C135.090988,86.966942 135.576050,87.027328 136.089447,87.253464 
	C137.431900,87.640121 138.260941,87.800652 139.089981,87.961182 
	C139.089981,87.961182 139.569824,88.024940 140.128967,88.263229 
	C142.161652,88.653793 143.635208,88.806076 145.108765,88.958359 
	C145.108765,88.958359 145.569809,89.053421 146.021271,89.300186 
	C147.663315,89.672195 148.853882,89.797440 150.044449,89.922684 
z"/>
<path fill="#0A95C9" opacity="1.000000" stroke="none" 
	d="
M80.392365,79.525154 
	C70.353836,81.979828 60.345722,84.578995 50.238403,86.706947 
	C48.969948,86.973999 47.178341,84.756187 45.821144,82.887756 
	C57.142769,78.668510 68.218735,75.148727 80.543419,75.438904 
	C81.001503,76.156059 81.006821,76.535110 80.941025,77.356186 
	C80.710732,78.373856 80.551544,78.949509 80.392365,79.525154 
M77.503212,76.529709 
	C77.503212,76.529709 77.486961,76.488419 77.503212,76.529709 
z"/>
<path fill="#0995CA" opacity="1.000000" stroke="none" 
	d="
M128.880768,84.634773 
	C127.848488,85.825989 126.622795,86.711655 125.174042,87.839615 
	C120.215240,86.164879 115.551918,84.028969 110.711754,82.427589 
	C108.454147,81.680656 105.854027,81.969002 103.316422,81.241257 
	C102.758621,80.138565 102.372681,79.212540 101.814301,79.093178 
	C99.777863,78.657845 97.683861,78.491844 95.255562,78.178391 
	C96.035965,76.839088 96.514305,76.018188 96.992638,75.197289 
	C98.105484,75.475838 99.218323,75.754387 100.905762,76.280159 
	C102.667519,76.650719 103.854683,76.774040 105.041840,76.897369 
	C105.793808,76.957047 106.545784,77.016724 107.824097,77.292824 
	C108.567108,77.691521 108.802292,77.845528 109.055992,77.971268 
	C109.055992,77.971268 109.000473,77.992546 109.301369,78.163765 
	C110.767105,78.544403 111.931938,78.753815 113.096779,78.963234 
	C118.293648,80.751892 123.490509,82.540558 128.880768,84.634773 
z"/>
<path fill="#000000" opacity="1.000000" stroke="none" 
	d="
M103.266151,103.594765 
	C106.791801,103.446396 109.967712,103.035652 113.047836,103.410934 
	C114.289856,103.562263 115.322235,105.434227 116.450027,106.523132 
	C115.395615,107.399940 114.371078,108.980782 113.281425,109.027023 
	C109.364517,109.193260 105.406578,109.006447 101.509789,108.557190 
	C100.644966,108.457489 99.966522,106.741188 99.202271,105.769241 
	C100.427490,105.062210 101.652710,104.355171 103.266151,103.594765 
z"/>
<path fill="#000000" opacity="1.000000" stroke="none" 
	d="
M189.449905,105.846985 
	C188.291656,102.033478 191.095978,102.619545 192.979172,102.419441 
	C195.811615,102.118477 198.668198,102.044464 202.593170,101.809349 
	C202.528107,103.201241 203.208405,105.993698 202.126572,107.182205 
	C200.910614,108.518097 198.037491,108.994400 196.007690,108.764374 
	C193.830780,108.517685 191.796280,107.014366 189.449905,105.846985 
z"/>
<path fill="#0793C2" opacity="1.000000" stroke="none" 
	d="
M96.531853,75.125198 
	C96.514305,76.018188 96.035965,76.839088 95.255562,78.178391 
	C97.683861,78.491844 99.777863,78.657845 101.814301,79.093178 
	C102.372681,79.212540 102.758621,80.138565 103.084915,80.901131 
	C95.752609,80.702339 88.559074,80.296844 81.408218,79.622864 
	C83.494949,79.081192 85.539001,78.808014 87.583046,78.534836 
	C87.577850,78.106857 87.572647,77.678886 87.567451,77.250908 
	C85.382347,77.138657 83.197235,77.026413 81.012131,76.914169 
	C81.006821,76.535110 81.001503,76.156059 80.992264,75.492714 
	C86.015915,75.156654 91.043495,75.104889 96.531853,75.125198 
z"/>
<path fill="#000000" opacity="1.000000" stroke="none" 
	d="
M64.000443,104.999390 
	C65.171509,104.441147 66.614922,104.145821 67.458763,103.271690 
	C69.408401,101.252045 70.883041,101.433502 72.855087,103.298576 
	C73.884277,104.271919 75.611557,104.507133 77.947983,105.448013 
	C77.247780,106.355034 76.377251,108.501991 75.424217,108.539268 
	C71.476768,108.693657 66.753960,111.069733 64.061829,105.370659 
	C64.000000,105.000000 64.000443,104.999390 64.000443,104.999390 
z"/>
<path fill="#4B9852" opacity="1.000000" stroke="none" 
	d="
M89.440750,53.912560 
	C89.504341,47.864010 89.867363,41.853283 90.543388,35.877964 
	C90.759888,33.964386 91.804466,32.144493 92.805977,30.157545 
	C92.747955,36.672379 92.457657,43.320492 91.876328,49.943058 
	C91.754440,51.331661 90.561119,52.626213 89.440750,53.912560 
z"/>
<path fill="#679B68" opacity="1.000000" stroke="none" 
	d="
M148.489212,20.134211 
	C148.279617,22.151997 147.158569,24.104023 147.093491,26.090643 
	C146.865463,33.050953 147.222458,40.032951 146.915176,46.987179 
	C146.734085,51.085899 148.016525,53.292316 152.555298,53.617867 
	C150.767303,53.777489 148.645523,53.777489 146.014099,53.777489 
	C146.014099,43.128845 145.977768,32.573528 146.101776,22.020096 
	C146.109467,21.367250 147.379364,20.729233 148.489212,20.134211 
z"/>
<path fill="#000000" opacity="1.000000" stroke="none" 
	d="
M166.985596,105.997025 
	C168.093170,105.021652 169.200760,104.046280 170.683945,103.371193 
	C171.706924,104.783318 172.354324,105.895157 173.001724,107.007004 
	C171.189056,111.639374 168.796082,110.254951 166.317398,107.178970 
	C166.578842,106.483734 166.791046,106.248337 166.985596,105.997025 
z"/>
<path fill="#90BC92" opacity="1.000000" stroke="none" 
	d="
M83.645508,20.305717 
	C84.066528,31.087664 84.067787,41.995331 84.087021,53.356819 
	C83.731804,53.229836 83.032967,52.648598 83.033730,52.068279 
	C83.047607,41.522602 83.145630,30.977032 83.645508,20.305717 
z"/>
<path fill="#0A92C0" opacity="1.000000" stroke="none" 
	d="
M182.440521,93.014275 
	C181.190903,91.790253 180.354309,90.540054 179.216278,89.127960 
	C181.167252,88.399246 183.419662,87.832428 185.596558,87.932205 
	C185.521042,89.288460 185.521042,89.978111 185.521042,90.667763 
	C185.870560,90.624146 186.220078,90.580536 186.569595,90.536926 
	C186.339752,89.720284 186.109909,88.903648 185.880081,88.087006 
	C185.719635,87.957314 185.559204,87.827614 185.950638,87.847954 
	C188.684219,88.683182 190.865921,89.368378 193.047623,90.053574 
	C189.649597,91.031754 186.251572,92.009926 182.440521,93.014275 
z"/>
<path fill="#87C089" opacity="1.000000" stroke="none" 
	d="
M80.395401,52.613792 
	C80.024376,42.244270 80.030075,31.682199 80.026939,20.665634 
	C80.346725,20.873459 80.962006,21.536219 80.960991,22.198030 
	C80.945503,32.272511 80.849396,42.346859 80.395401,52.613792 
z"/>
<path fill="#000000" opacity="1.000000" stroke="none" 
	d="
M153.112671,106.958450 
	C151.245636,108.085541 149.378616,109.212624 147.310272,109.928467 
	C147.149445,109.334892 147.189941,109.152573 147.450592,108.912888 
	C148.009964,108.444687 148.349182,108.033859 148.688416,107.623032 
	C148.135498,107.732758 147.582581,107.842476 146.820862,107.760399 
	C146.076599,107.033096 145.541153,106.497589 145.004608,105.635056 
	C145.002350,104.872032 145.001175,104.436012 145.000000,104.000000 
	C145.943161,104.083939 146.886322,104.167885 148.347458,104.542099 
	C150.281174,105.541061 151.696930,106.249756 153.112671,106.958450 
z"/>
<path fill="#000000" opacity="1.000000" stroke="none" 
	d="
M166.652008,105.946144 
	C166.791046,106.248337 166.578842,106.483734 166.171478,106.862198 
	C163.639740,107.440849 161.285492,107.860497 158.151535,108.419136 
	C158.526886,107.128265 158.522095,105.332161 159.392319,104.646309 
	C160.318649,103.916229 162.116074,103.971176 163.452530,104.185722 
	C164.473022,104.349541 165.367752,105.296616 166.652008,105.946144 
z"/>
<path fill="#000000" opacity="1.000000" stroke="none" 
	d="
M144.678162,103.995956 
	C145.001175,104.436012 145.002350,104.872032 144.973190,105.895561 
	C144.919342,106.656105 144.895813,106.829140 144.872284,107.002167 
	C142.818542,107.356247 140.764816,107.710327 138.057434,108.001526 
	C136.602325,107.617111 135.800873,107.295586 134.999405,106.974060 
	C135.484665,106.699974 135.969925,106.425896 136.977615,106.076904 
	C137.668137,106.001740 137.836197,106.001480 138.004272,106.001221 
	C138.524796,105.793900 139.045303,105.586578 140.089371,105.082611 
	C141.431610,104.514465 142.250320,104.242958 143.069016,103.971451 
	C143.498108,103.978271 143.927216,103.985085 144.678162,103.995956 
z"/>
<path fill="#049AD7" opacity="1.000000" stroke="none" 
	d="
M193.019348,85.140526 
	C195.269318,84.910461 197.519272,84.680405 199.769226,84.450340 
	C199.948944,85.012764 200.128662,85.575195 200.308380,86.137619 
	C199.146622,87.085297 197.984848,88.032967 196.080688,88.998138 
	C194.559387,89.010406 193.780472,89.005180 193.000778,88.999832 
	C193.000000,88.999695 192.999786,88.996529 192.990387,88.611046 
	C192.993774,87.197220 193.006561,86.168869 193.019348,85.140526 
z"/>
<path fill="#98BD9A" opacity="1.000000" stroke="none" 
	d="
M111.314308,53.693810 
	C110.928398,45.518169 110.968735,37.226692 111.025848,28.466995 
	C111.362816,31.453382 111.886841,34.903973 111.954979,38.363541 
	C112.054794,43.431644 111.828102,48.506172 111.314308,53.693810 
z"/>
<path fill="#60995E" opacity="1.000000" stroke="none" 
	d="
M114.688232,19.302753 
	C115.054565,26.808649 115.015854,34.474445 114.964737,42.613956 
	C114.634247,38.640182 114.187729,34.196968 114.039658,29.743828 
	C113.925919,26.323252 114.188148,22.890173 114.688232,19.302753 
z"/>
<path fill="#000000" opacity="1.000000" stroke="none" 
	d="
M176.065582,108.035660 
	C175.530579,107.807945 174.995560,107.580231 174.337524,106.900139 
	C174.142563,105.298302 174.070648,104.148849 173.998749,102.999390 
	C175.579041,104.123871 177.159332,105.248360 178.514130,106.759483 
	C177.547638,107.442627 176.806610,107.739136 176.065582,108.035660 
z"/>
<path fill="#000000" opacity="1.000000" stroke="none" 
	d="
M91.851730,105.374855 
	C92.393707,104.299080 92.874931,103.532196 93.356163,102.765312 
	C93.830986,102.875862 94.305817,102.986412 94.780647,103.096962 
	C94.474030,104.696861 94.167412,106.296753 93.860794,107.896652 
	C93.170860,107.159019 92.480927,106.421387 91.851730,105.374855 
z"/>
<path fill="#000000" opacity="1.000000" stroke="none" 
	d="
M153.385376,106.810059 
	C151.696930,106.249756 150.281174,105.541061 148.816406,104.607994 
	C150.527588,104.195412 152.287766,104.007202 154.047958,103.818985 
	C153.917999,104.766548 153.788025,105.714104 153.385376,106.810059 
z"/>
<path fill="#060606" opacity="1.000000" stroke="none" 
	d="
M127.062958,107.951416 
	C125.517639,107.702499 123.972313,107.453583 122.426994,107.204666 
	C122.479034,106.581642 122.531067,105.958618 122.583107,105.335594 
	C123.843147,104.913704 125.103195,104.491814 126.598679,104.336716 
	C126.910400,105.719475 126.986679,106.835442 127.062958,107.951416 
z"/>
<path fill="#0296D5" opacity="1.000000" stroke="none" 
	d="
M80.941025,77.356186 
	C83.197235,77.026413 85.382347,77.138657 87.567451,77.250908 
	C87.572647,77.678886 87.577850,78.106857 87.583046,78.534836 
	C85.539001,78.808014 83.494949,79.081192 80.931152,79.449341 
	C80.411392,79.544304 80.440247,79.497200 80.416306,79.511177 
	C80.551544,78.949509 80.710732,78.373856 80.941025,77.356186 
z"/>
<path fill="#000000" opacity="1.000000" stroke="none" 
	d="
M127.369621,107.951859 
	C126.986679,106.835442 126.910400,105.719475 126.946678,104.337311 
	C128.021439,104.977646 128.983643,105.884178 129.945847,106.790710 
	C129.189316,107.177910 128.432800,107.565109 127.369621,107.951859 
z"/>
<path fill="#000000" opacity="1.000000" stroke="none" 
	d="
M173.623917,102.999451 
	C174.070648,104.148849 174.142563,105.298302 174.103653,106.724884 
	C173.992828,107.001999 173.497253,107.003860 173.249481,107.005432 
	C172.354324,105.895157 171.706924,104.783318 171.029770,103.335739 
	C171.749695,102.999832 172.499390,102.999672 173.623917,102.999451 
z"/>
<path fill="#0596CE" opacity="1.000000" stroke="none" 
	d="
M193.026642,90.035156 
	C190.865921,89.368378 188.684219,88.683182 186.141479,87.604340 
	C185.780426,87.210693 186.038513,87.097626 186.481476,87.240021 
	C187.627274,87.004898 188.330093,86.627373 189.032913,86.249847 
	C189.467712,86.189316 189.902527,86.128777 190.704178,86.332520 
	C191.713959,87.396706 192.356873,88.196617 192.999786,88.996521 
	C192.999786,88.996529 193.000000,88.999695 193.006577,89.264145 
	C193.023453,89.704559 193.033737,89.880508 193.044037,90.056465 
	C193.044037,90.056465 193.005676,90.016731 193.026642,90.035156 
z"/>
<path fill="#0995CA" opacity="1.000000" stroke="none" 
	d="
M127.185364,89.408356 
	C129.220047,89.515251 131.423523,89.956711 133.807449,90.717850 
	C131.776657,90.605995 129.565399,90.174454 127.185364,89.408356 
z"/>
<path fill="#0A92C0" opacity="1.000000" stroke="none" 
	d="
M169.422821,94.864639 
	C171.161530,94.428551 173.310822,94.069885 175.743683,93.898720 
	C173.962631,94.371506 171.898026,94.656784 169.422821,94.864639 
z"/>
<path fill="#0B8EBB" opacity="1.000000" stroke="none" 
	d="
M176.575287,89.143074 
	C174.830933,89.569618 172.677887,89.910446 170.247955,90.074028 
	C172.036270,89.616982 174.101425,89.337166 176.575287,89.143074 
z"/>
<path fill="#060606" opacity="1.000000" stroke="none" 
	d="
M134.770355,107.078461 
	C135.800873,107.295586 136.602325,107.617111 137.731018,107.987427 
	C137.002716,108.458755 135.947174,108.881310 134.891647,109.303871 
	C134.774857,108.596870 134.658081,107.889862 134.770355,107.078461 
z"/>
<path fill="#060606" opacity="1.000000" stroke="none" 
	d="
M143.024185,103.690445 
	C142.250320,104.242958 141.431610,104.514465 140.318848,104.919418 
	C140.646210,104.044144 141.267609,103.035416 141.889008,102.026688 
	C142.252457,102.487602 142.615906,102.948524 143.024185,103.690445 
z"/>
<path fill="#0A92C0" opacity="1.000000" stroke="none" 
	d="
M192.990387,88.611038 
	C192.356873,88.196617 191.713959,87.396706 191.028229,86.271454 
	C191.457947,85.638741 191.930450,85.331367 192.711151,85.082260 
	C193.006561,86.168869 192.993774,87.197220 192.990387,88.611038 
z"/>
<path fill="#0B8EBB" opacity="1.000000" stroke="none" 
	d="
M149.854294,89.605766 
	C148.853882,89.797440 147.663315,89.672195 146.245911,89.370529 
	C147.234085,89.225685 148.449112,89.257263 149.854294,89.605766 
z"/>
<path fill="#0596CE" opacity="1.000000" stroke="none" 
	d="
M185.840179,88.066879 
	C186.109909,88.903648 186.339752,89.720284 186.569595,90.536926 
	C186.220078,90.580536 185.870560,90.624146 185.521042,90.667763 
	C185.521042,89.978111 185.521042,89.288460 185.621429,88.301384 
	C185.721817,88.003960 185.800278,88.046753 185.840179,88.066879 
z"/>
<path fill="#000000" opacity="1.000000" stroke="none" 
	d="
M51.102562,108.254440 
	C51.132317,108.645668 51.043541,109.041695 50.809620,109.312195 
	C50.735363,109.398079 50.274368,109.149529 49.990349,109.054016 
	C50.302853,108.772896 50.615353,108.491783 51.102562,108.254440 
z"/>
<path fill="#0793C2" opacity="1.000000" stroke="none" 
	d="
M104.850723,76.583237 
	C103.854683,76.774040 102.667519,76.650719 101.254105,76.348572 
	C102.238434,76.202873 103.449013,76.235992 104.850723,76.583237 
z"/>
<path fill="#000000" opacity="1.000000" stroke="none" 
	d="
M184.660400,102.466660 
	C184.379700,102.207932 184.263336,101.905861 184.146957,101.603790 
	C184.281540,101.567604 184.529480,101.489052 184.534088,101.501411 
	C184.646698,101.802826 184.733383,102.113937 184.660400,102.466660 
z"/>
<path fill="#000000" opacity="1.000000" stroke="none" 
	d="
M80.943375,108.068687 
	C80.477509,107.536018 80.011642,107.003357 79.545776,106.470688 
	C79.733597,106.316086 79.921410,106.161484 80.109230,106.006882 
	C80.407639,106.474693 80.706047,106.942505 81.007439,107.700378 
	C81.010414,107.990440 80.943375,108.068687 80.943375,108.068687 
z"/>
<path fill="#060606" opacity="1.000000" stroke="none" 
	d="
M144.970764,107.304672 
	C144.895813,106.829140 144.919342,106.656105 144.974274,106.222580 
	C145.541153,106.497589 146.076599,107.033096 146.865875,108.016029 
	C147.156631,108.632393 147.193542,108.801323 147.230438,108.970261 
	C147.189941,109.152573 147.149445,109.334892 147.038757,109.789139 
	C146.335464,109.243103 145.702347,108.425140 144.970764,107.304672 
z"/>
<path fill="#000000" opacity="1.000000" stroke="none" 
	d="
M176.292999,108.179886 
	C176.806610,107.739136 177.547638,107.442627 178.576782,107.080032 
	C178.083405,107.450676 177.301910,107.887398 176.292999,108.179886 
z"/>
<path fill="#0B8EBB" opacity="1.000000" stroke="none" 
	d="
M144.912064,88.617447 
	C143.635208,88.806076 142.161652,88.653793 140.360245,88.334549 
	C141.593384,88.203911 143.154373,88.240227 144.912064,88.617447 
z"/>
<path fill="#000000" opacity="1.000000" stroke="none" 
	d="
M63.999714,105.000229 
	C63.644066,104.728073 63.288700,104.455704 62.933334,104.183334 
	C63.246105,104.330894 63.558872,104.478455 63.936043,104.812706 
	C64.000443,104.999390 64.000000,105.000000 63.999714,105.000229 
z"/>
<path fill="#060606" opacity="1.000000" stroke="none" 
	d="
M137.986206,105.752853 
	C137.836197,106.001480 137.668137,106.001740 137.247894,106.001610 
	C136.962128,105.377335 136.928513,104.753441 136.894897,104.129555 
	C137.084991,104.082512 137.275070,104.035477 137.465149,103.988434 
	C137.632812,104.493790 137.800476,104.999138 137.986206,105.752853 
z"/>
<path fill="#0A92C0" opacity="1.000000" stroke="none" 
	d="
M188.728607,86.160774 
	C188.330093,86.627373 187.627274,87.004898 186.612015,87.293030 
	C187.007812,86.826317 187.716049,86.449013 188.728607,86.160774 
z"/>
<path fill="#0793C2" opacity="1.000000" stroke="none" 
	d="
M112.886421,78.658310 
	C111.931938,78.753815 110.767105,78.544403 109.305756,78.134361 
	C110.231522,78.073616 111.453789,78.213501 112.886421,78.658310 
z"/>
<path fill="#000000" opacity="1.000000" stroke="none" 
	d="
M181.267578,108.672562 
	C181.119553,108.374428 181.096802,108.108345 181.074051,107.842255 
	C181.211090,107.869019 181.466812,107.895905 181.466782,107.922531 
	C181.466522,108.183250 181.423630,108.443916 181.267578,108.672562 
z"/>
<path fill="#000000" opacity="1.000000" stroke="none" 
	d="
M83.082375,108.012665 
	C82.437691,108.170456 81.793015,108.328239 81.045853,108.277359 
	C80.943375,108.068687 81.010414,107.990440 81.044868,107.951248 
	C81.502495,107.917778 81.925659,107.923500 82.687744,107.950302 
	C83.026649,107.971382 83.082375,108.012672 83.082375,108.012665 
z"/>
<path fill="#60995E" opacity="1.000000" stroke="none" 
	d="
M119.645615,19.103149 
	C119.167824,19.257065 118.312477,19.353159 117.221367,19.305647 
	C117.746422,19.123137 118.507240,19.084230 119.645615,19.103149 
z"/>
<path fill="#000000" opacity="1.000000" stroke="none" 
	d="
M97.547272,108.694290 
	C97.520226,108.704353 97.574310,108.684227 97.547272,108.694290 
z"/>
<path fill="#000000" opacity="1.000000" stroke="none" 
	d="
M121.973236,110.982124 
	C121.815231,110.985252 121.718834,110.928154 121.622437,110.871056 
	C121.759903,110.888000 121.897369,110.904945 121.973236,110.982124 
z"/>
<path fill="#0995CA" opacity="1.000000" stroke="none" 
	d="
M138.914917,87.663528 
	C138.260941,87.800652 137.431900,87.640121 136.321655,87.329727 
	C136.940247,87.241867 137.840057,87.303871 138.914917,87.663528 
z"/>
<path fill="#0A92C0" opacity="1.000000" stroke="none" 
	d="
M193.390656,90.017502 
	C193.033737,89.880508 193.023453,89.704559 193.007355,89.264282 
	C193.780472,89.005180 194.559387,89.010406 195.727936,89.032249 
	C195.324142,89.358749 194.530701,89.668640 193.390656,90.017502 
z"/>
<path fill="#489D4B" opacity="1.000000" stroke="none" 
	d="
M95.359688,27.977163 
	C95.336060,27.748207 95.544937,27.424629 95.925293,27.070854 
	C95.928581,27.321287 95.760384,27.601915 95.359688,27.977163 
z"/>
<path fill="#489D4B" opacity="1.000000" stroke="none" 
	d="
M92.090897,21.705885 
	C91.826714,21.569515 91.504097,21.139143 91.084343,20.456711 
	C91.335632,20.607061 91.684052,21.009472 92.090897,21.705885 
z"/>
<path fill="#000000" opacity="1.000000" stroke="none" 
	d="
M82.039017,103.531487 
	C82.015656,103.557648 82.062386,103.505325 82.039017,103.531487 
z"/>
<path fill="#000000" opacity="1.000000" stroke="none" 
	d="
M156.037689,108.530533 
	C156.014847,108.556046 156.060547,108.505020 156.037689,108.530533 
z"/>
<path fill="#000000" opacity="1.000000" stroke="none" 
	d="
M83.005447,107.943939 
	C82.984245,107.916504 83.157928,107.946091 83.120148,107.979385 
	C83.082375,108.012672 83.026649,107.971382 83.005447,107.943939 
z"/>
<path fill="#0793C2" opacity="1.000000" stroke="none" 
	d="
M108.975388,77.737633 
	C108.802292,77.845528 108.567108,77.691521 108.194046,77.367599 
	C108.406616,77.061928 108.692322,77.154610 108.975388,77.737633 
z"/>
<path fill="#0995CA" opacity="1.000000" stroke="none" 
	d="
M129.753479,85.100716 
	C129.987640,85.190262 129.590790,85.246437 129.590790,85.246437 
	C129.590790,85.246437 129.219864,85.104797 129.124069,85.007309 
	C129.191956,84.943604 129.355652,84.977386 129.753479,85.100716 
z"/>
<path fill="#0995CA" opacity="1.000000" stroke="none" 
	d="
M132.947388,85.700089 
	C132.765808,85.817757 132.548584,85.675575 132.212219,85.366287 
	C132.424316,85.045807 132.697205,85.126160 132.947388,85.700089 
z"/>
<path fill="#0995CA" opacity="1.000000" stroke="none" 
	d="
M134.989960,86.746796 
	C134.836365,86.847443 134.596359,86.703552 134.209137,86.401520 
	C134.406784,86.097389 134.687317,86.183685 134.989960,86.746796 
z"/>
<path fill="#0A92C0" opacity="1.000000" stroke="none" 
	d="
M179.249100,93.842316 
	C179.239700,93.602402 179.493805,93.564919 179.879822,93.734329 
	C179.827026,93.842949 179.660645,93.877449 179.249100,93.842316 
z"/>
<path fill="#0995CA" opacity="1.000000" stroke="none" 
	d="
M126.238464,88.857773 
	C126.260918,88.672302 126.499443,88.674370 126.823891,88.886108 
	C126.913940,88.971298 126.458649,88.920845 126.238464,88.857773 
z"/>
<path fill="#000000" opacity="1.000000" stroke="none" 
	d="
M62.165382,27.985807 
	C67.096893,27.623341 70.550346,29.354836 71.737709,33.800327 
	C72.710236,37.441502 72.301125,41.213684 68.721840,43.565941 
	C64.781509,46.155468 60.265656,47.806168 56.687878,43.665894 
	C54.920456,41.620590 53.894489,37.873112 54.362762,35.218594 
	C54.986717,31.681551 56.920742,27.956697 62.165382,27.985807 
z"/>
<path fill="#000000" opacity="1.000000" stroke="none" 
	d="
M192.368042,30.887672 
	C195.439056,37.900677 194.069229,41.795315 188.466110,44.847717 
	C184.197495,47.173122 179.904388,46.256721 177.967651,42.914783 
	C176.280960,40.004261 176.263535,35.220551 177.341217,31.850632 
	C178.595383,27.928881 182.916077,27.113338 186.879623,28.020992 
	C188.720001,28.442446 190.365540,29.714701 192.368042,30.887672 
z"/>
<path fill="#4B9852" opacity="1.000000" stroke="none" 
	d="
M90.532486,27.803528 
	C90.221001,27.954002 89.961571,27.957336 89.702141,27.960670 
	C89.795547,27.699394 89.888962,27.438114 89.982368,27.176834 
	C90.183098,27.336687 90.383820,27.496538 90.532486,27.803528 
z"/>
<path fill="#0296D5" opacity="1.000000" stroke="none" 
	d="
M77.495087,76.509064 
	C77.486961,76.488419 77.503212,76.529709 77.495087,76.509064 
z"/>
<path fill="#000000" opacity="1.000000" stroke="none" 
	d="
M147.450592,108.912888 
	C147.193542,108.801323 147.156631,108.632393 147.074677,108.207825 
	C147.582581,107.842476 148.135498,107.732758 148.688416,107.623032 
	C148.349182,108.033859 148.009964,108.444687 147.450592,108.912888 
z"/>
</svg>