<svg version="1.1" id="Layer_1" xmlns="http://www.w3.org/2000/svg" xmlns:xlink="http://www.w3.org/1999/xlink" x="0px" y="0px"
	 width="100%" viewBox="0 0 140 70" enable-background="new 0 0 140 70" xml:space="preserve">
<path fill="#000000" opacity="1.000000" stroke="none" 
	d="
M28.000000,71.000000 
	C19.645767,71.000000 11.291536,71.000000 2.468652,70.547104 
	C2.052325,67.073555 2.104650,64.052902 2.451553,61.218147 
	C3.365708,62.894169 3.985286,64.384293 4.635966,65.949211 
	C7.219676,64.917419 9.697286,64.060295 12.061534,62.959660 
	C19.950327,59.287163 23.438156,52.738285 20.894852,44.473976 
	C18.781689,37.607391 15.608630,31.056973 12.757501,24.429995 
	C9.047881,15.807597 9.677074,13.928928 18.051640,9.993081 
	C19.325361,9.394463 20.631107,8.863985 21.687260,8.404199 
	C21.070583,5.698041 20.535292,3.349021 20.000000,1.000000 
	C59.354229,1.000000 98.708458,1.000000 138.531342,1.468657 
	C138.946121,17.287807 138.892227,32.638298 138.482269,47.992970 
	C137.413849,48.016945 136.701508,48.036743 135.862061,47.636040 
	C135.734955,45.266827 135.734955,43.318111 135.734955,41.001423 
	C134.540268,41.428574 133.665100,41.823586 132.748734,42.056412 
	C123.579430,44.386105 114.517929,47.602371 105.200531,48.771431 
	C93.208229,50.276115 81.860664,46.659264 70.889732,41.547932 
	C57.601601,35.357021 43.779987,34.755928 29.823092,39.586861 
	C26.453466,40.753193 25.198666,42.750420 26.817236,46.439079 
	C25.698126,48.680107 24.746655,50.596760 23.334650,53.441105 
	C41.591354,45.614361 58.016144,46.140774 74.682167,54.606396 
	C81.006012,57.818630 88.646248,59.172924 95.825714,59.813454 
	C110.486557,61.121449 124.920914,59.065842 138.913452,54.472878 
	C138.992355,60.289608 138.996185,65.644806 139.000000,71.000000 
	C136.958328,71.000000 134.916672,71.000000 132.416840,70.622162 
	C131.762527,67.908752 131.566360,65.573189 131.388763,63.458843 
	C122.243713,63.868526 113.488457,64.973442 104.517799,64.257004 
	C94.905724,63.489330 85.184853,64.083824 75.000000,64.083824 
	C75.000000,66.743393 75.000000,68.871696 75.000000,71.000000 
	C74.250000,71.000000 73.500000,71.000000 72.384674,70.666183 
	C72.172852,68.365875 72.326370,66.399376 72.511757,64.024567 
	C58.017014,64.024567 44.388477,64.024567 30.684877,64.024567 
	C29.720970,66.528847 28.860483,68.764420 28.000000,71.000000 
M109.245354,11.193918 
	C109.245354,11.193918 108.916557,10.931821 108.925331,10.198392 
	C106.188385,6.407116 102.742043,9.486785 99.654518,9.325271 
	C94.913834,9.077273 90.150612,9.260088 84.993843,9.260088 
	C84.993843,13.614636 85.407455,17.646933 84.799522,21.518833 
	C84.539841,23.172722 82.149239,24.492029 80.726929,25.963369 
	C79.818253,24.498993 78.264877,23.093061 78.125801,21.558918 
	C77.757477,17.495890 78.000908,13.377403 78.000908,9.248072 
	C74.996834,9.248072 72.718445,9.248072 70.258263,9.248072 
	C70.103264,11.035804 69.968124,12.594511 69.811920,14.396132 
	C65.890724,7.425728 61.752457,6.540024 49.287312,9.779237 
	C49.287312,17.368603 49.287312,24.957970 49.287312,32.620464 
	C51.618256,32.620464 53.656044,32.620464 55.530300,32.620464 
	C57.432777,26.624168 53.065922,19.213984 59.876774,15.078893 
	C60.584515,15.147465 61.292259,15.216037 62.000000,15.284609 
	C62.000000,18.130688 62.000000,20.976767 62.000000,23.822845 
	C62.000000,26.763744 62.000000,29.704643 62.000000,32.770493 
	C64.923004,32.770493 67.189964,32.770493 69.732887,32.770493 
	C69.888535,30.667233 70.029800,28.758314 70.212341,26.291658 
	C72.384079,30.951736 75.479973,33.015011 80.365166,33.127117 
	C85.278748,33.239872 88.931885,31.633245 91.749619,27.148632 
	C91.974678,29.443188 92.131187,31.038895 92.284470,32.601723 
	C94.974655,32.601723 97.354744,32.601723 100.003189,32.601723 
	C100.003189,28.391499 99.934906,24.574734 100.022491,20.761547 
	C100.109169,16.987764 102.055702,15.613728 106.000114,16.308821 
	C106.000114,18.525852 105.976303,20.342842 106.004494,22.159023 
	C106.096558,28.090839 111.299370,33.876217 117.148895,33.817959 
	C121.912529,33.770515 126.667595,32.862835 131.679794,32.308594 
	C131.679794,24.802826 131.679794,17.084475 131.679794,9.125592 
	C128.003479,9.125592 124.425407,9.870914 121.343796,8.951778 
	C116.663208,7.555727 113.026459,8.493248 109.245354,11.193918 
M22.984735,18.289618 
	C21.803703,26.881624 25.668669,33.019180 33.278645,33.505558 
	C37.977600,33.805885 42.755058,32.877853 47.682625,32.486568 
	C47.682625,24.769306 47.682625,17.055330 47.682625,9.047853 
	C44.179161,9.047853 40.855927,9.639436 37.838131,8.930616 
	C30.464079,7.198599 25.178946,10.008018 22.984735,18.289618 
z"/>
<path fill="#3DA241" opacity="1.000000" stroke="none" 
	d="
M19.562500,1.000000 
	C20.535292,3.349021 21.070583,5.698041 21.687260,8.404199 
	C20.631107,8.863985 19.325361,9.394463 18.051640,9.993081 
	C9.677074,13.928928 9.047881,15.807597 12.757501,24.429995 
	C15.608630,31.056973 18.781689,37.607391 20.894852,44.473976 
	C23.438156,52.738285 19.950327,59.287163 12.061534,62.959660 
	C9.697286,64.060295 7.219676,64.917419 4.635966,65.949211 
	C3.985286,64.384293 3.365708,62.894169 2.384100,60.815731 
	C2.066836,59.140232 2.111602,58.053051 2.522197,56.955109 
	C4.124496,56.539806 5.385125,56.196579 6.593428,55.720539 
	C13.317445,53.071438 14.315269,50.246861 11.234400,43.537163 
	C8.116888,36.747669 5.173261,29.878334 2.087675,22.586151 
	C2.065816,18.737795 2.109749,15.347260 2.442064,11.786181 
	C5.288051,9.036407 7.856821,6.468102 10.397275,3.872087 
	C11.300249,2.949366 12.134420,1.959315 13.000000,1.000000 
	C15.041667,1.000000 17.083334,1.000000 19.562500,1.000000 
z"/>
<path fill="#231F20" opacity="1.000000" stroke="none" 
	d="
M75.437500,71.000000 
	C75.000000,68.871696 75.000000,66.743393 75.000000,64.083824 
	C85.184853,64.083824 94.905724,63.489330 104.517799,64.257004 
	C113.488457,64.973442 122.243713,63.868526 131.388763,63.458843 
	C131.566360,65.573189 131.762527,67.908752 131.979340,70.622162 
	C129.958328,71.000000 127.916664,71.000000 125.441154,70.738045 
	C124.771851,70.256218 124.536400,70.036339 124.300941,69.816467 
	C124.200630,70.210976 124.100319,70.605492 124.000000,71.000000 
	C123.250000,71.000000 122.500000,71.000000 121.378654,70.738045 
	C120.771858,70.256210 120.536400,70.036339 120.300934,69.816467 
	C120.200623,70.210976 120.100311,70.605484 120.000000,71.000000 
	C117.958336,71.000000 115.916664,71.000000 113.441154,70.738045 
	C112.771851,70.256218 112.536392,70.036346 112.300941,69.816467 
	C112.200630,70.210976 112.100319,70.605492 112.000000,71.000000 
	C109.299988,71.000000 106.599968,71.000000 103.453629,70.738045 
	C102.771858,70.256210 102.536400,70.036339 102.300941,69.816467 
	C102.200623,70.210976 102.100311,70.605492 102.000000,71.000000 
	C100.285645,71.000000 98.571281,71.000000 96.432114,70.738045 
	C95.771851,70.256218 95.536392,70.036346 95.300941,69.816467 
	C95.200630,70.210976 95.100311,70.605492 95.000000,71.000000 
	C92.958336,71.000000 90.916664,71.000000 88.441154,70.738045 
	C87.771851,70.256218 87.536400,70.036339 87.300941,69.816467 
	C87.200630,70.210976 87.100311,70.605492 87.000000,71.000000 
	C86.250000,71.000000 85.500000,71.000000 84.364998,70.668823 
	C83.505913,69.502853 83.031837,68.668060 82.000000,66.851143 
	C82.000000,69.051079 82.000000,70.025543 82.000000,71.000000 
	C79.958336,71.000000 77.916664,71.000000 75.437500,71.000000 
M90.468048,68.295914 
	C90.597481,67.882660 90.749542,67.474152 90.837967,67.052307 
	C90.856445,66.964088 90.640182,66.826675 90.532097,66.711929 
	C90.403374,67.124702 90.274651,67.537483 90.468048,68.295914 
M107.520477,68.400154 
	C107.520477,68.400154 107.425346,68.567017 107.425346,68.567017 
	C107.425346,68.567017 107.606606,68.543831 107.520477,68.400154 
z"/>
<path fill="#231F20" opacity="1.000000" stroke="none" 
	d="
M28.428461,71.000000 
	C28.860483,68.764420 29.720970,66.528847 30.684877,64.024567 
	C44.388477,64.024567 58.017014,64.024567 72.511757,64.024567 
	C72.326370,66.399376 72.172852,68.365875 72.009674,70.666183 
	C69.629440,71.000000 67.258888,71.000000 64.447815,70.738052 
	C63.771847,70.256233 63.536396,70.036362 63.300941,69.816498 
	C63.200630,70.210999 63.100315,70.605499 63.000000,71.000000 
	C60.299988,71.000000 57.599972,71.000000 54.453636,70.738045 
	C53.771854,70.256218 53.536396,70.036354 53.300938,69.816483 
	C53.200626,70.210991 53.100311,70.605492 53.000000,71.000000 
	C51.285641,71.000000 49.571285,71.000000 47.432121,70.738045 
	C46.771858,70.256218 46.536396,70.036354 46.300941,69.816483 
	C46.200626,70.210991 46.100315,70.605492 46.000000,71.000000 
	C44.933331,71.000000 43.866661,71.000000 42.403656,70.738045 
	C41.771858,70.256218 41.536396,70.036354 41.300938,69.816483 
	C41.200626,70.210991 41.100311,70.605492 41.000000,71.000000 
	C40.555553,71.000000 40.111111,71.000000 39.336990,70.738045 
	C38.771858,70.256218 38.536396,70.036354 38.300941,69.816483 
	C38.200626,70.210991 38.100315,70.605492 38.000000,71.000000 
	C37.250000,71.000000 36.500000,71.000000 35.378658,70.738045 
	C34.771858,70.256218 34.536396,70.036354 34.300941,69.816483 
	C34.200626,70.210991 34.100315,70.605492 34.000000,71.000000 
	C32.285641,71.000000 30.571283,71.000000 28.428461,71.000000 
M60.234272,68.199966 
	C60.409164,68.139313 60.584061,68.078659 60.758953,68.018005 
	C60.582466,67.959976 60.405975,67.901939 60.234272,68.199966 
z"/>
<path fill="#FFFFFF" opacity="1.000000" stroke="none" 
	d="
M139.500000,71.000000 
	C138.996185,65.644806 138.992355,60.289608 138.980789,54.047081 
	C138.928131,51.436100 138.883224,49.712448 138.838333,47.988792 
	C138.892227,32.638298 138.946121,17.287807 139.000000,1.468658 
	C139.666672,1.333334 140.915604,1.664349 140.916931,2.000331 
	C141.008514,24.999966 141.000000,48.000000 140.958893,70.999924 
	C140.958893,71.000519 140.333328,71.000000 139.500000,71.000000 
z"/>
<path fill="#FFFFFF" opacity="1.000000" stroke="none" 
	d="
M2.156368,56.965866 
	C2.111602,58.053051 2.066836,59.140232 2.089523,60.629833 
	C2.104650,64.052902 2.052325,67.073555 2.000000,70.547104 
	C1.666666,69.678322 1.046382,68.357430 1.042776,67.034851 
	C0.982759,45.023357 1.000000,23.011656 1.500000,1.456885 
	C2.051227,5.261422 2.102454,8.609074 2.153681,11.956725 
	C2.109749,15.347260 2.065816,18.737795 2.016422,23.049063 
	C2.059430,34.968487 2.107899,45.967178 2.156368,56.965866 
z"/>
<path fill="#000000" opacity="1.000000" stroke="none" 
	d="
M2.442064,11.786181 
	C2.102454,8.609074 2.051227,5.261422 2.000000,1.456885 
	C5.361288,1.000000 8.722575,1.000000 12.541931,1.000000 
	C12.134420,1.959315 11.300249,2.949366 10.397275,3.872087 
	C7.856821,6.468102 5.288051,9.036407 2.442064,11.786181 
z"/>
<path fill="#000000" opacity="1.000000" stroke="none" 
	d="
M82.333328,71.000000 
	C82.000000,70.025543 82.000000,69.051079 82.000000,66.851143 
	C83.031837,68.668060 83.505913,69.502853 83.989998,70.668823 
	C83.555557,71.000000 83.111107,71.000000 82.333328,71.000000 
z"/>
<path fill="#000000" opacity="1.000000" stroke="none" 
	d="
M124.250000,71.000000 
	C124.100319,70.605492 124.200630,70.210976 124.300941,69.816467 
	C124.536400,70.036339 124.771851,70.256218 125.003654,70.738045 
	C125.000000,71.000000 124.500000,71.000000 124.250000,71.000000 
z"/>
<path fill="#000000" opacity="1.000000" stroke="none" 
	d="
M120.250000,71.000000 
	C120.100311,70.605484 120.200623,70.210976 120.300934,69.816467 
	C120.536400,70.036339 120.771858,70.256210 121.003654,70.738045 
	C121.000000,71.000000 120.500000,71.000000 120.250000,71.000000 
z"/>
<path fill="#000000" opacity="1.000000" stroke="none" 
	d="
M112.250000,71.000000 
	C112.100319,70.605492 112.200630,70.210976 112.300941,69.816467 
	C112.536392,70.036346 112.771851,70.256218 113.003654,70.738045 
	C113.000000,71.000000 112.500000,71.000000 112.250000,71.000000 
z"/>
<path fill="#000000" opacity="1.000000" stroke="none" 
	d="
M102.250000,71.000000 
	C102.100311,70.605492 102.200623,70.210976 102.300941,69.816467 
	C102.536400,70.036339 102.771858,70.256210 103.003654,70.738045 
	C103.000000,71.000000 102.500000,71.000000 102.250000,71.000000 
z"/>
<path fill="#000000" opacity="1.000000" stroke="none" 
	d="
M95.250000,71.000000 
	C95.100311,70.605492 95.200630,70.210976 95.300941,69.816467 
	C95.536392,70.036346 95.771851,70.256218 96.003654,70.738045 
	C96.000000,71.000000 95.500000,71.000000 95.250000,71.000000 
z"/>
<path fill="#000000" opacity="1.000000" stroke="none" 
	d="
M87.250000,71.000000 
	C87.100311,70.605492 87.200630,70.210976 87.300941,69.816467 
	C87.536400,70.036339 87.771851,70.256218 88.003654,70.738045 
	C88.000000,71.000000 87.500000,71.000000 87.250000,71.000000 
z"/>
<path fill="#000000" opacity="1.000000" stroke="none" 
	d="
M63.250000,71.000000 
	C63.100315,70.605499 63.200630,70.210999 63.300941,69.816498 
	C63.536396,70.036362 63.771847,70.256233 64.003647,70.738052 
	C64.000000,71.000000 63.500000,71.000000 63.250000,71.000000 
z"/>
<path fill="#000000" opacity="1.000000" stroke="none" 
	d="
M53.250000,71.000000 
	C53.100311,70.605492 53.200626,70.210991 53.300938,69.816483 
	C53.536396,70.036354 53.771854,70.256218 54.003658,70.738045 
	C54.000000,71.000000 53.500000,71.000000 53.250000,71.000000 
z"/>
<path fill="#000000" opacity="1.000000" stroke="none" 
	d="
M46.250000,71.000000 
	C46.100315,70.605492 46.200626,70.210991 46.300941,69.816483 
	C46.536396,70.036354 46.771858,70.256218 47.003658,70.738045 
	C47.000000,71.000000 46.500000,71.000000 46.250000,71.000000 
z"/>
<path fill="#000000" opacity="1.000000" stroke="none" 
	d="
M41.250000,71.000000 
	C41.100311,70.605492 41.200626,70.210991 41.300938,69.816483 
	C41.536396,70.036354 41.771858,70.256218 42.003658,70.738045 
	C42.000000,71.000000 41.500000,71.000000 41.250000,71.000000 
z"/>
<path fill="#000000" opacity="1.000000" stroke="none" 
	d="
M38.250000,71.000000 
	C38.100315,70.605492 38.200626,70.210991 38.300941,69.816483 
	C38.536396,70.036354 38.771858,70.256218 39.003658,70.738045 
	C39.000000,71.000000 38.500000,71.000000 38.250000,71.000000 
z"/>
<path fill="#000000" opacity="1.000000" stroke="none" 
	d="
M34.250000,71.000000 
	C34.100315,70.605492 34.200626,70.210991 34.300941,69.816483 
	C34.536396,70.036354 34.771858,70.256218 35.003658,70.738045 
	C35.000000,71.000000 34.500000,71.000000 34.250000,71.000000 
z"/>
<path fill="#3DA241" opacity="1.000000" stroke="none" 
	d="
M109.555328,11.478012 
	C113.026459,8.493248 116.663208,7.555727 121.343796,8.951778 
	C124.425407,9.870914 128.003479,9.125592 131.679794,9.125592 
	C131.679794,17.084475 131.679794,24.802826 131.679794,32.308594 
	C126.667595,32.862835 121.912529,33.770515 117.148895,33.817959 
	C111.299370,33.876217 106.096558,28.090839 106.004494,22.159023 
	C105.976303,20.342842 106.000114,18.525852 106.000114,16.308821 
	C102.055702,15.613728 100.109169,16.987764 100.022491,20.761547 
	C99.934906,24.574734 100.003189,28.391499 100.003189,32.601723 
	C97.354744,32.601723 94.974655,32.601723 92.284470,32.601723 
	C92.131187,31.038895 91.974678,29.443188 91.749619,27.148632 
	C88.931885,31.633245 85.278748,33.239872 80.365166,33.127117 
	C75.479973,33.015011 72.384079,30.951736 70.212341,26.291658 
	C70.029800,28.758314 69.888535,30.667233 69.732887,32.770493 
	C67.189964,32.770493 64.923004,32.770493 62.000000,32.770493 
	C62.000000,29.704643 62.000000,26.763744 62.000000,23.822845 
	C62.000000,20.976767 62.000000,18.130688 62.000000,15.284609 
	C61.292259,15.216037 60.584515,15.147465 59.876774,15.078893 
	C53.065922,19.213984 57.432777,26.624168 55.530300,32.620464 
	C53.656044,32.620464 51.618256,32.620464 49.287312,32.620464 
	C49.287312,24.957970 49.287312,17.368603 49.293365,9.777476 
	C61.752457,6.540024 65.890724,7.425728 69.811920,14.396132 
	C69.968124,12.594511 70.103264,11.035804 70.258263,9.248072 
	C72.718445,9.248072 74.996834,9.248072 78.000908,9.248072 
	C78.000908,13.377403 77.757477,17.495890 78.125801,21.558918 
	C78.264877,23.093061 79.818253,24.498993 80.726929,25.963371 
	C82.149239,24.492029 84.539841,23.172722 84.799522,21.518833 
	C85.407455,17.646933 84.993843,13.614636 84.993843,9.260088 
	C90.150612,9.260088 94.913834,9.077273 99.654518,9.325271 
	C102.742043,9.486785 106.188385,6.407116 108.671173,10.698114 
	C108.386559,11.622385 108.356117,12.046934 108.325668,12.471483 
	C108.735558,12.140326 109.145439,11.809169 109.555328,11.478012 
M120.630852,26.094784 
	C121.317566,25.662815 122.056374,25.295103 122.682091,24.787891 
	C125.567963,22.448584 125.888359,20.133564 122.964516,17.398020 
	C120.110786,14.728086 117.431068,14.584479 115.068787,17.598785 
	C114.134003,18.791588 113.269867,21.478405 113.872192,22.159323 
	C115.485184,23.982777 117.908775,25.089188 120.630852,26.094784 
z"/>
<path fill="#3DA241" opacity="1.000000" stroke="none" 
	d="
M26.984873,46.114704 
	C25.198666,42.750420 26.453466,40.753193 29.823092,39.586861 
	C43.779987,34.755928 57.601601,35.357021 70.889732,41.547932 
	C81.860664,46.659264 93.208229,50.276115 105.200531,48.771431 
	C114.517929,47.602371 123.579430,44.386105 132.748734,42.056412 
	C133.665100,41.823586 134.540268,41.428574 135.734955,41.001423 
	C135.734955,43.318111 135.734955,45.266827 135.866547,47.607670 
	C135.998154,47.999798 136.054855,48.011784 135.682510,47.851768 
	C134.531708,47.966358 133.729980,48.188736 132.978287,48.523434 
	C122.503563,53.187374 111.250305,53.899120 100.143959,53.748062 
	C92.393669,53.642647 84.673538,51.319668 76.977722,49.982559 
	C77.015495,49.977901 77.033188,50.051949 76.886337,49.728516 
	C73.951073,47.981548 71.243279,46.363358 68.359909,45.169079 
	C57.439426,40.645874 46.352367,39.126827 34.701431,44.028389 
	C31.899883,44.836430 29.442377,45.475567 26.984873,46.114704 
z"/>
<path fill="#2098CF" opacity="1.000000" stroke="none" 
	d="
M26.817236,46.439079 
	C29.442377,45.475567 31.899883,44.836430 35.139305,44.087421 
	C44.858196,42.153492 53.736988,42.874378 62.457470,45.094463 
	C67.415405,46.356667 72.180984,48.374439 77.033188,50.051949 
	C77.033188,50.051949 77.015495,49.977901 77.132858,50.323128 
	C89.422112,56.067913 102.270042,56.744972 115.075081,54.713818 
	C122.242371,53.576935 129.072693,50.315777 136.054855,48.011787 
	C136.054855,48.011784 135.998154,47.999798 135.993652,48.028168 
	C136.701508,48.036743 137.413849,48.016945 138.482269,47.992970 
	C138.883224,49.712448 138.928131,51.436100 138.905701,53.585548 
	C124.920914,59.065842 110.486557,61.121449 95.825714,59.813454 
	C88.646248,59.172924 81.006012,57.818630 74.682167,54.606396 
	C58.016144,46.140774 41.591354,45.614361 23.334650,53.441105 
	C24.746655,50.596760 25.698126,48.680107 26.817236,46.439079 
z"/>
<path fill="#3DA241" opacity="1.000000" stroke="none" 
	d="
M22.992352,17.898891 
	C25.178946,10.008018 30.464079,7.198599 37.838131,8.930616 
	C40.855927,9.639436 44.179161,9.047853 47.682625,9.047853 
	C47.682625,17.055330 47.682625,24.769306 47.682625,32.486568 
	C42.755058,32.877853 37.977600,33.805885 33.278645,33.505558 
	C25.668669,33.019180 21.803703,26.881624 22.992352,17.898891 
M33.649479,16.107220 
	C32.463844,18.094891 29.833797,21.138029 30.367945,21.869015 
	C31.869637,23.924093 34.728355,26.215952 36.947304,26.114952 
	C38.607895,26.039368 41.589329,22.191244 41.340324,20.387701 
	C40.933617,17.441912 38.702572,14.252316 33.649479,16.107220 
z"/>
<path fill="#000000" opacity="1.000000" stroke="none" 
	d="
M2.522197,56.955109 
	C2.107899,45.967178 2.059430,34.968487 2.082213,23.506886 
	C5.173261,29.878334 8.116888,36.747669 11.234400,43.537163 
	C14.315269,50.246861 13.317445,53.071438 6.593428,55.720539 
	C5.385125,56.196579 4.124496,56.539806 2.522197,56.955109 
z"/>
<path fill="#000000" opacity="1.000000" stroke="none" 
	d="
M90.306984,68.123085 
	C90.274651,67.537483 90.403374,67.124702 90.532097,66.711929 
	C90.640182,66.826675 90.856445,66.964088 90.837967,67.052307 
	C90.749542,67.474152 90.597481,67.882660 90.306984,68.123085 
z"/>
<path fill="#000000" opacity="1.000000" stroke="none" 
	d="
M107.563538,68.471992 
	C107.606606,68.543831 107.425346,68.567017 107.425346,68.567017 
	C107.425346,68.567017 107.520477,68.400154 107.563538,68.471992 
z"/>
<path fill="#000000" opacity="1.000000" stroke="none" 
	d="
M60.231880,68.021942 
	C60.405975,67.901939 60.582466,67.959976 60.758953,68.018005 
	C60.584061,68.078659 60.409164,68.139313 60.231880,68.021942 
z"/>
<path fill="#000000" opacity="1.000000" stroke="none" 
	d="
M120.320602,26.287619 
	C117.908775,25.089188 115.485184,23.982777 113.872192,22.159323 
	C113.269867,21.478405 114.134003,18.791588 115.068787,17.598785 
	C117.431068,14.584479 120.110786,14.728086 122.964516,17.398020 
	C125.888359,20.133564 125.567963,22.448584 122.682091,24.787891 
	C122.056374,25.295103 121.317566,25.662815 120.320602,26.287619 
z"/>
<path fill="#000000" opacity="1.000000" stroke="none" 
	d="
M109.400345,11.335965 
	C109.145439,11.809169 108.735558,12.140326 108.325668,12.471483 
	C108.356117,12.046934 108.386559,11.622385 108.666779,11.064829 
	C108.916557,10.931821 109.245354,11.193918 109.400345,11.335965 
z"/>
<path fill="#000000" opacity="1.000000" stroke="none" 
	d="
M135.682510,47.851768 
	C129.072693,50.315777 122.242371,53.576935 115.075081,54.713818 
	C102.270042,56.744972 89.422112,56.067913 77.095078,50.327789 
	C84.673538,51.319668 92.393669,53.642647 100.143959,53.748062 
	C111.250305,53.899120 122.503563,53.187374 132.978287,48.523434 
	C133.729980,48.188736 134.531708,47.966358 135.682510,47.851768 
z"/>
<path fill="#000000" opacity="1.000000" stroke="none" 
	d="
M76.886337,49.728516 
	C72.180984,48.374439 67.415405,46.356667 62.457470,45.094463 
	C53.736988,42.874378 44.858196,42.153492 35.483345,43.918518 
	C46.352367,39.126827 57.439426,40.645874 68.359909,45.169079 
	C71.243279,46.363358 73.951073,47.981548 76.886337,49.728516 
z"/>
<path fill="#000000" opacity="1.000000" stroke="none" 
	d="
M34.007469,16.006886 
	C38.702572,14.252316 40.933617,17.441912 41.340324,20.387701 
	C41.589329,22.191244 38.607895,26.039368 36.947304,26.114952 
	C34.728355,26.215952 31.869637,23.924093 30.367945,21.869015 
	C29.833797,21.138029 32.463844,18.094891 34.007469,16.006886 
z"/>
</svg>